<svg version="1.1" id="Layer_1" xmlns="http://www.w3.org/2000/svg" xmlns:xlink="http://www.w3.org/1999/xlink" x="0px" y="0px"
	 width="100%" viewBox="0 0 400 400" enable-background="new 0 0 400 400" xml:space="preserve">
<path fill="#473BCE" opacity="1.000000" stroke="none" 
	d="
M188.000000,401.000000 
	C125.352760,401.000000 63.205513,401.000000 1.029136,401.000000 
	C1.029136,267.727753 1.029136,134.455505 1.029136,1.091625 
	C134.230530,1.091625 267.461151,1.091625 400.845886,1.091625 
	C400.845886,134.333191 400.845886,267.666565 400.845886,401.000000 
	C330.122253,401.000000 259.311127,401.000000 188.000000,401.000000 
M337.806091,329.907318 
	C327.244293,324.878662 322.976562,314.997894 319.066193,305.049286 
	C288.047546,226.133179 257.093018,147.191757 226.305527,68.185326 
	C224.654373,63.948154 222.710297,62.998672 218.371613,63.198349 
	C208.408035,63.656891 198.397293,63.595821 188.428345,63.189957 
	C184.308258,63.022217 182.398331,63.992844 180.831573,68.007805 
	C154.721573,134.917358 128.585373,201.817917 102.042442,268.556396 
	C95.797432,284.258606 88.378334,299.528717 80.818001,314.657104 
	C77.452423,321.391632 71.860367,327.116333 64.494591,329.439087 
	C58.932983,331.192932 58.562187,334.035858 59.691284,338.354858 
	C86.844849,338.354858 113.751068,338.354858 140.687408,338.354858 
	C140.687408,335.983398 140.687408,333.601837 140.687408,331.312531 
	C136.831543,330.838257 133.353165,330.499908 129.904022,329.971100 
	C112.332825,327.276917 104.648102,318.379211 105.351433,301.427124 
	C105.495964,297.943695 105.565323,294.310730 106.589928,291.034637 
	C112.089981,273.448669 117.948250,255.974976 123.509499,238.407654 
	C124.501991,235.272507 126.162994,234.430405 129.284790,234.445282 
	C152.948914,234.558105 176.614471,234.593704 200.277771,234.413803 
	C203.847244,234.386673 205.095779,235.813889 206.181747,238.866135 
	C213.038254,258.137299 220.166443,277.311859 227.013733,296.586243 
	C229.063110,302.354950 231.075562,308.244720 232.081207,314.250427 
	C233.503021,322.741364 230.240036,327.108948 221.785904,328.959747 
	C216.328247,330.154572 210.730881,330.711273 205.297379,331.538544 
	C205.297379,334.043213 205.297379,336.299774 205.297379,338.356812 
	C251.147064,338.356812 296.696869,338.356812 342.474121,338.356812 
	C342.474121,336.015320 342.474121,333.741119 342.474121,331.480255 
	C341.041565,330.993256 339.789734,330.567688 337.806091,329.907318 
z"/>
<path fill="#FEFEFF" opacity="1.000000" stroke="none" 
	d="
M338.171997,330.024719 
	C339.789734,330.567688 341.041565,330.993256 342.474121,331.480255 
	C342.474121,333.741119 342.474121,336.015320 342.474121,338.356812 
	C296.696869,338.356812 251.147064,338.356812 205.297379,338.356812 
	C205.297379,336.299774 205.297379,334.043213 205.297379,331.538544 
	C210.730881,330.711273 216.328247,330.154572 221.785904,328.959747 
	C230.240036,327.108948 233.503021,322.741364 232.081207,314.250427 
	C231.075562,308.244720 229.063110,302.354950 227.013733,296.586243 
	C220.166443,277.311859 213.038254,258.137299 206.181747,238.866135 
	C205.095779,235.813889 203.847244,234.386673 200.277771,234.413803 
	C176.614471,234.593704 152.948914,234.558105 129.284790,234.445282 
	C126.162994,234.430405 124.501991,235.272507 123.509499,238.407654 
	C117.948250,255.974976 112.089981,273.448669 106.589928,291.034637 
	C105.565323,294.310730 105.495964,297.943695 105.351433,301.427124 
	C104.648102,318.379211 112.332825,327.276917 129.904022,329.971100 
	C133.353165,330.499908 136.831543,330.838257 140.687408,331.312531 
	C140.687408,333.601837 140.687408,335.983398 140.687408,338.354858 
	C113.751068,338.354858 86.844849,338.354858 59.691284,338.354858 
	C58.562187,334.035858 58.932983,331.192932 64.494591,329.439087 
	C71.860367,327.116333 77.452423,321.391632 80.818001,314.657104 
	C88.378334,299.528717 95.797432,284.258606 102.042442,268.556396 
	C128.585373,201.817917 154.721573,134.917358 180.831573,68.007805 
	C182.398331,63.992844 184.308258,63.022217 188.428345,63.189957 
	C198.397293,63.595821 208.408035,63.656891 218.371613,63.198349 
	C222.710297,62.998672 224.654373,63.948154 226.305527,68.185326 
	C257.093018,147.191757 288.047546,226.133179 319.066193,305.049286 
	C322.976562,314.997894 327.244293,324.878662 338.171997,330.024719 
M173.841690,150.607529 
	C171.333786,143.946411 168.825897,137.285294 165.883408,129.469864 
	C153.024353,162.666489 140.710510,194.455582 128.284607,226.533997 
	C153.110092,226.533997 176.989914,226.533997 201.720139,226.533997 
	C192.358841,201.121109 183.194885,176.243942 173.841690,150.607529 
z"/>
<path fill="#493ECF" opacity="1.000000" stroke="none" 
	d="
M173.936310,150.987152 
	C183.194885,176.243942 192.358841,201.121109 201.720139,226.533997 
	C176.989914,226.533997 153.110092,226.533997 128.284607,226.533997 
	C140.710510,194.455582 153.024353,162.666489 165.883408,129.469864 
	C168.825897,137.285294 171.333786,143.946411 173.936310,150.987152 
z"/>
</svg>