<svg xmlns="http://www.w3.org/2000/svg" viewBox="0 0 510 510"><g fill="none" stroke="#b892ca" stroke-width="2"><path d="M169.21 217.52q0-1.93 1.37-.57l82.71 82.72a1.01 1.01 0 0 0 1.42 0l82.76-82.77q1.37-1.36 1.37.57L338.78 380a1 1 0 0 0 1 1H406a1 1 0 0 0 1-1q0-163.13-.09-326.25 0-.81-.72-.77a.83.79-68.3 0 0-.52.24L254.7 204.16a1 .99 44.8 0 1-1.41 0L102.71 53.58q-1.71-1.7-1.71.71V380a1 1 0 0 0 1 1h66.24a1 1 0 0 0 1-1l-.03-162.48m-56.96 209.95a.35.35 0 0 1 .6-.24l11.89 11.87a.35.35 0 0 0 .5 0l12.19-11.99a.35.35 0 0 1 .6.25l-.09 23.79a.35.35 0 0 0 .35.35h9.61a.35.35 0 0 0 .35-.35v-48.43a.35.35 0 0 0-.6-.25l-22.27 22.28a.35.35 0 0 1-.5 0l-22.28-22.28a.35.35 0 0 0-.6.24v48.46a.35.35 0 0 0 .35.35l9.55-.09a.35.35 0 0 0 .35-.35v-23.61m268.25 7.66q0-2.87 1.78-.62l13.16 16.61a1.01 1-18.9 0 0 .79.38l10.24-.01q1.66 0 .62-1.3l-13.74-17.26a1 1 0 0 1 .35-1.53q5.62-2.69 7.51-7.93c2.93-8.15-2.69-17.38-11.3-18.66q-7.1-1.06-18.71-.44a1 .99-1.5 0 0-.95.99v45.14a1 1 0 0 0 1 1h8.25a1 1 0 0 0 1-1v-15.37m-179.32-3.547a20.94 20.58.5 0 0-20.76-20.762 20.94 20.58.5 0 0-21.12 20.396 20.94 20.58.5 0 0 20.76 20.762 20.94 20.58.5 0 0 21.12-20.396m60.36-.243q5.37 3.61 11.16 5.68c4.09 1.47 2.95 5.69-1.18 5.62q-4.96-.08-9.07-3.17a1 .99-54.4 0 0-1.43.24l-3.88 5.74a1 .99 37.4 0 0 .18 1.31q7.05 6.11 16.25 5.12c13.65-1.47 16.68-18.48 3.25-23.88-3.39-1.36-9.4-3.19-7.69-6.75a.99.96 3.3 0 1 .59-.51q4.76-1.58 9.03 1.01a1 .99-58.5 0 0 1.36-.33l3.78-5.99a1.01 1-57.9 0 0-.31-1.38q-8.19-5.17-16.49-2.18c-8.49 3.07-10.72 11.62-5.83 19.19q.11.17.28.28m-39.6 20.19a.33.33 0 0 0 .33-.33l-.05-18.89a.33.33 0 0 1 .54-.25l23.7 19.52a.33.33 0 0 0 .54-.26v-39.54a.33.33 0 0 0-.33-.33l-9.09.08a.33.33 0 0 0-.33.33v18.74a.33.33 0 0 1-.54.26l-23.92-19.67a.33.33 0 0 0-.54.26v39.63a.33.33 0 0 0 .33.33l9.36.12m79.95-30.78a.36.36 0 0 1 .36.36v30.03a.36.36 0 0 0 .36.36h9.53a.36.36 0 0 0 .36-.36v-30.03a.36.36 0 0 1 .36-.36h8.53a.36.36 0 0 0 .36-.36v-8.53a.36.36 0 0 0-.36-.36h-28.03a.36.36 0 0 0-.36.36v8.53a.36.36 0 0 0 .36.36h8.53m40.5 15.51a.49.49 0 0 1 .48-.48l11.15-.17a.49.49 0 0 0 .48-.49v-7.88a.49.49 0 0 0-.49-.49h-11.27a.49.49 0 0 1-.49-.49v-5.02a.49.49 0 0 1 .49-.49h14.27a.49.49 0 0 0 .49-.49v-8.27a.49.49 0 0 0-.49-.49h-24.27a.49.49 0 0 0-.49.49v38.92a.49.49 0 0 0 .49.49l24.7.15a.49.49 0 0 0 .5-.49l.08-8.56a.49.49 0 0 0-.49-.5h-14.81a.49.49 0 0 1-.49-.5l.16-5.24" vector-effect="non-scaling-stroke"/><path d="M389.13 414.28a1 .98-23.7 0 0-.66-.25l-6.96-.06a1.01 1 0 0 0-1.01 1v7.71a1 1 0 0 0 .96 1q2.47.09 4.86-.1c5.84-.46 7.61-5 2.81-9.3m-198.06 17.1a10.82 10.82 0 0 0-10.82-10.82 10.82 10.82 0 0 0-10.82 10.82 10.82 10.82 0 0 0 10.82 10.82 10.82 10.82 0 0 0 10.82-10.82" vector-effect="non-scaling-stroke"/></g><path fill="#fff" d="M0 0h510v510H0V0Zm169.21 217.52q0-1.93 1.37-.57l82.71 82.72a1.01 1.01 0 0 0 1.42 0l82.76-82.77q1.37-1.36 1.37.57L338.78 380a1 1 0 0 0 1 1H406a1 1 0 0 0 1-1q0-163.13-.09-326.25 0-.81-.72-.77a.83.79-68.3 0 0-.52.24L254.7 204.16a1 .99 44.8 0 1-1.41 0L102.71 53.58q-1.71-1.7-1.71.71V380a1 1 0 0 0 1 1h66.24a1 1 0 0 0 1-1l-.03-162.48Zm-56.96 209.95a.35.35 0 0 1 .6-.24l11.89 11.87a.35.35 0 0 0 .5 0l12.19-11.99a.35.35 0 0 1 .6.25l-.09 23.79a.35.35 0 0 0 .35.35h9.61a.35.35 0 0 0 .35-.35v-48.43a.35.35 0 0 0-.6-.25l-22.27 22.28a.35.35 0 0 1-.5 0l-22.28-22.28a.35.35 0 0 0-.6.24v48.46a.35.35 0 0 0 .35.35l9.55-.09a.35.35 0 0 0 .35-.35v-23.61Zm268.25 7.66q0-2.87 1.78-.62l13.16 16.61a1.01 1-18.9 0 0 .79.38l10.24-.01q1.66 0 .62-1.3l-13.74-17.26a1 1 0 0 1 .35-1.53q5.62-2.69 7.51-7.93c2.93-8.15-2.69-17.38-11.3-18.66q-7.1-1.06-18.71-.44a1 .99-1.5 0 0-.95.99v45.14a1 1 0 0 0 1 1h8.25a1 1 0 0 0 1-1v-15.37Zm-179.32-3.547a20.94 20.58.5 0 0-20.76-20.762 20.94 20.58.5 0 0-21.12 20.396 20.94 20.58.5 0 0 20.76 20.762 20.94 20.58.5 0 0 21.12-20.396Zm60.36-.243q5.37 3.61 11.16 5.68c4.09 1.47 2.95 5.69-1.18 5.62q-4.96-.08-9.07-3.17a1 .99-54.4 0 0-1.43.24l-3.88 5.74a1 .99 37.4 0 0 .18 1.31q7.05 6.11 16.25 5.12c13.65-1.47 16.68-18.48 3.25-23.88-3.39-1.36-9.4-3.19-7.69-6.75a.99.96 3.3 0 1 .59-.51q4.76-1.58 9.03 1.01a1 .99-58.5 0 0 1.36-.33l3.78-5.99a1.01 1-57.9 0 0-.31-1.38q-8.19-5.17-16.49-2.18c-8.49 3.07-10.72 11.62-5.83 19.19q.11.17.28.28Zm-39.6 20.19a.33.33 0 0 0 .33-.33l-.05-18.89a.33.33 0 0 1 .54-.25l23.7 19.52a.33.33 0 0 0 .54-.26v-39.54a.33.33 0 0 0-.33-.33l-9.09.08a.33.33 0 0 0-.33.33v18.74a.33.33 0 0 1-.54.26l-23.92-19.67a.33.33 0 0 0-.54.26v39.63a.33.33 0 0 0 .33.33l9.36.12Zm79.95-30.78a.36.36 0 0 1 .36.36v30.03a.36.36 0 0 0 .36.36h9.53a.36.36 0 0 0 .36-.36v-30.03a.36.36 0 0 1 .36-.36h8.53a.36.36 0 0 0 .36-.36v-8.53a.36.36 0 0 0-.36-.36h-28.03a.36.36 0 0 0-.36.36v8.53a.36.36 0 0 0 .36.36h8.53Zm40.5 15.51a.49.49 0 0 1 .48-.48l11.15-.17a.49.49 0 0 0 .48-.49v-7.88a.49.49 0 0 0-.49-.49h-11.27a.49.49 0 0 1-.49-.49v-5.02a.49.49 0 0 1 .49-.49h14.27a.49.49 0 0 0 .49-.49v-8.27a.49.49 0 0 0-.49-.49h-24.27a.49.49 0 0 0-.49.49v38.92a.49.49 0 0 0 .49.49l24.7.15a.49.49 0 0 0 .5-.49l.08-8.56a.49.49 0 0 0-.49-.5h-14.81a.49.49 0 0 1-.49-.5l.16-5.24Z"/><path fill="#712495" d="m169.21 217.52.03 162.48a1 1 0 0 1-1 1H102a1 1 0 0 1-1-1V54.29q0-2.41 1.71-.71l150.58 150.58a1 .99 44.8 0 0 1.41 0L405.67 53.22a.83.79-68.3 0 1 .52-.24q.72-.04.72.77Q407 216.87 407 380a1 1 0 0 1-1 1h-66.22a1 1 0 0 1-1-1l.06-162.53q0-1.93-1.37-.57l-82.76 82.77a1.01 1.01 0 0 1-1.42 0l-82.71-82.72q-1.37-1.36-1.37.57Zm-56.96 209.95v23.61a.35.35 0 0 1-.35.35l-9.55.09a.35.35 0 0 1-.35-.35v-48.46a.35.35 0 0 1 .6-.24l22.28 22.28a.35.35 0 0 0 .5 0l22.27-22.28a.35.35 0 0 1 .6.25v48.43a.35.35 0 0 1-.35.35h-9.61a.35.35 0 0 1-.35-.35l.09-23.79a.35.35 0 0 0-.6-.25l-12.19 11.99a.35.35 0 0 1-.5 0l-11.89-11.87a.35.35 0 0 0-.6.24Zm268.25 7.66v15.37a1 1 0 0 1-1 1h-8.25a1 1 0 0 1-1-1v-45.14a1 .99-1.5 0 1 .95-.99q11.61-.62 18.71.44c8.61 1.28 14.23 10.51 11.3 18.66q-1.89 5.24-7.51 7.93a1 1 0 0 0-.35 1.53l13.74 17.26q1.04 1.3-.62 1.3l-10.24.01a1.01 1-18.9 0 1-.79-.38l-13.16-16.61q-1.78-2.25-1.78.62Zm8.63-20.85a1 .98-23.7 0 0-.66-.25l-6.96-.06a1.01 1 0 0 0-1.01 1v7.71a1 1 0 0 0 .96 1q2.47.09 4.86-.1c5.84-.46 7.61-5 2.81-9.3Zm-187.95 17.303a20.94 20.58.5 0 1-21.12 20.396 20.94 20.58.5 0 1-20.76-20.762 20.94 20.58.5 0 1 21.12-20.396 20.94 20.58.5 0 1 20.76 20.762Zm-10.11-.203a10.82 10.82 0 0 0-10.82-10.82 10.82 10.82 0 0 0-10.82 10.82 10.82 10.82 0 0 0 10.82 10.82 10.82 10.82 0 0 0 10.82-10.82Zm70.47-.04q-.17-.11-.28-.28c-4.89-7.57-2.66-16.12 5.83-19.19q8.3-2.99 16.49 2.18a1.01 1-57.9 0 1 .31 1.38l-3.78 5.99a1 .99-58.5 0 1-1.36.33q-4.27-2.59-9.03-1.01a.99.96 3.3 0 0-.59.51c-1.71 3.56 4.3 5.39 7.69 6.75 13.43 5.4 10.4 22.41-3.25 23.88q-9.2.99-16.25-5.12a1 .99 37.4 0 1-.18-1.31l3.88-5.74a1 .99-54.4 0 1 1.43-.24q4.11 3.09 9.07 3.17c4.13.07 5.27-4.15 1.18-5.62q-5.79-2.07-11.16-5.68Zm-39.6 20.19-9.36-.12a.33.33 0 0 1-.33-.33v-39.63a.33.33 0 0 1 .54-.26l23.92 19.67a.33.33 0 0 0 .54-.26v-18.74a.33.33 0 0 1 .33-.33l9.09-.08a.33.33 0 0 1 .33.33v39.54a.33.33 0 0 1-.54.26l-23.7-19.52a.33.33 0 0 0-.54.25l.05 18.89a.33.33 0 0 1-.33.33Zm79.95-30.78h-8.53a.36.36 0 0 1-.36-.36v-8.53a.36.36 0 0 1 .36-.36h28.03a.36.36 0 0 1 .36.36v8.53a.36.36 0 0 1-.36.36h-8.53a.36.36 0 0 0-.36.36v30.03a.36.36 0 0 1-.36.36h-9.53a.36.36 0 0 1-.36-.36v-30.03a.36.36 0 0 0-.36-.36Zm40.5 15.51-.16 5.24a.49.49 0 0 0 .49.5h14.81a.49.49 0 0 1 .49.5l-.08 8.56a.49.49 0 0 1-.5.49l-24.7-.15a.49.49 0 0 1-.49-.49v-38.92a.49.49 0 0 1 .49-.49h24.27a.49.49 0 0 1 .49.49v8.27a.49.49 0 0 1-.49.49h-14.27a.49.49 0 0 0-.49.49v5.02a.49.49 0 0 0 .49.49h11.27a.49.49 0 0 1 .49.49v7.88a.49.49 0 0 1-.48.49l-11.15.17a.49.49 0 0 0-.48.48Z"/><path fill="#fff" d="M389.13 414.28c4.8 4.3 3.03 8.84-2.81 9.3q-2.39.19-4.86.1a1 1 0 0 1-.96-1v-7.71a1.01 1 0 0 1 1.01-1l6.96.06a1 .98-23.7 0 1 .66.25Z"/><circle cx="180.25" cy="431.38" r="10.82" fill="#fff"/></svg>