<svg xmlns="http://www.w3.org/2000/svg" viewBox="0 0 1009 250"><path fill="#8bc53f" d="M845.31 0h6q13.66 3.3 16.18 15.71c2.51 12.33-6.83 24.05-19.46 23.85-23.99-.39-27.07-34.57-2.72-39.56Z"/><path fill="#00843f" d="M0 42.5V7.44l156.03-.13q.47 0 .47.47V42q0 .75-.75.75h-56a.5.5 0 0 0-.5.5V198a.5.5 0 0 1-.5.5H57.5a.5.5 0 0 1-.5-.5V43.25q0-.53-.53-.53L0 42.5ZM279.25 42.21V7.79a.54.54 0 0 1 .54-.54h56.42a.54.54 0 0 1 .54.54v190.17a.54.54 0 0 1-.54.54h-37.17a.54.54 0 0 1-.54-.54V43.29a.54.54 0 0 0-.54-.54h-18.17a.54.54 0 0 1-.54-.54ZM742.66 47.22l27.56-27.57a.39.39 0 0 1 .56 0l105.19 105.2a.39.39 0 0 1 0 .56L770.78 230.6a.39.39 0 0 1-.56 0l-27.44-27.44a.39.39 0 0 1 0-.56l77.06-77.07a.39.39 0 0 0 0-.56l-77.18-77.19a.39.39 0 0 1 0-.56Z"/><rect width="39.6" height="95.28" x="-19.8" y="-47.64" fill="#8bc53f" rx=".47" transform="rotate(45 371.99 1127.463)"/><path fill="#00843f" d="M224.62 185.84c-5.41 5.21-11.39 9.06-18.61 11.65-25.85 9.26-67.12 6.7-73.47-27.49-5.66-30.43 12.56-46.48 40.38-50.67q13.51-2.03 27.08-3.58c11.56-1.32 26.17-4.35 23.24-19.87-1.3-6.9-5.43-11.47-12.5-12.9-15.69-3.17-34.62-1.06-36.51 18.86q-.09.91-1.01.91h-36.73q-.55 0-.52-.55c2.2-47.49 60.85-50.21 94.03-42.94 14.12 3.09 26.26 11.34 30.33 25.3q1.39 4.78 1.4 14.14.04 35.03.01 70.05c-.01 9.8.93 20.05 4.59 29.25q.2.5-.34.5h-37.66q-.65 0-.79-.64l-2.5-11.89a.25.25 0 0 0-.42-.13Zm-1.64-54.36c-8.94 5.03-19.19 5.6-29.15 7.15-13.88 2.16-26.45 7.98-23.45 24.38q1.62 8.82 9.61 11.52c12.61 4.26 32.63 2.32 39.5-11.07 5.1-9.97 4.09-19.24 3.98-31.7q-.01-.55-.49-.28ZM401.28 139.19c-.1 14.24 6.65 27.97 20.49 32.3 14.61 4.57 36.28.49 42.87-15.56q.17-.43.64-.43h32.48q.61 0 .43.58c-6.8 22.26-22.47 38.95-45.65 43.96-40.39 8.72-78.97-9.49-87.76-52.3-8.73-42.52 13.24-84.96 58.78-90.87 51.16-6.65 80.04 34.06 77.32 81.01a.66.66 0 0 1-.66.62h-98.25q-.69 0-.69.69Zm34.97-53.95q-27.4-1.92-34.6 23.97-.31 1.15-.38 4.54-.01.5.48.5h60.42a.35.35 0 0 0 .34-.41c-2.78-14.97-9.51-27.43-26.26-28.6ZM522.43 116.01c4.25-31.49 25.46-54.16 57.32-58.74 55.48-7.99 92.08 31.31 84.01 85.93-6.68 45.25-47.49 66.54-90.1 56.77-39.79-9.11-56.4-45.67-51.23-83.96Zm47.63-21.37c-15.11 17.05-15.32 64.99 8.93 75.86 14.35 6.42 33.09 2.34 41.16-12.34 9.42-17.13 9.52-50.41-5.22-64.78-11.85-11.56-33.71-11.35-44.87 1.26Z"/><circle cx="742.69" cy="125.18" r="19.82" fill="#00843f"/><circle cx="953.67" cy="125.15" r="19.83" fill="#8bc53f"/><rect width="95.46" height="39.78" x="-47.73" y="-19.89" fill="#8bc53f" rx=".47" transform="rotate(45 231.965 1185.463)"/><path fill="#8bc53f" d="M852.69 250h-9q-11.43-3.33-14.44-13.55c-5.39-18.28 15.18-32.86 30.5-21.87 13.92 10 9.38 31.33-7.06 35.42ZM982.5 215.21v14.14q0 .53-.53.57l-1.31.1q-.66.05-.66-.61v-14.28q0-.63-.62-.63h-4.75q-.63 0-.63-.62v-1.25q0-.63.63-.63h13.1q.54 0 .69.51c.96 3.09-3.63 1.87-5.33 2.05q-.59.06-.59.65ZM1009 212.31v17.5q-.74.38-1.5.15-.5-.16-.5-.68v-11.92a.32.32 0 0 0-.63-.1l-3.91 12.1q-.18.55-.75.57l-1.48.07q-.68.03-.88-.61l-3.64-11.43a.36.36 0 0 0-.7.11l-.01 11.31q0 .62-.63.62h-1.46q-.66 0-.66-.66v-16.56q0-.41.38-.57c2.26-.97 3.49-.22 4.2 2.04q1.84 5.88 3.76 11.34a.41.41 0 0 0 .78-.01l4.27-12.8q.18-.54.73-.7 1.32-.38 2.63.23Z"/></svg> 